<svg xmlns="http://www.w3.org/2000/svg" width="350" height="400" viewBox="0 0 350 400">
  <g id="Group_1164" data-name="Group 1164" transform="translate(-785 -3499)">
    <g id="Group_1163" data-name="Group 1163">
      <rect id="Rectangle_822" data-name="Rectangle 822" width="350" height="400" rx="6" transform="translate(785 3499)" fill="#0e153d" opacity="0.85"/>
    </g>
    <text id="New_look_men_s_coat" data-name="New look men&apos;s coat" transform="translate(810 3768)" fill="#fff" font-size="18" font-family="Roboto-Regular, Roboto"><tspan x="0" y="0">New look men&apos;s coat</tspan></text>
    <text id="_190.00" data-name="$190.00" transform="translate(810 3871)" fill="#20d3c2" font-size="24" font-family="Roboto-Medium, Roboto" font-weight="500"><tspan x="0" y="0">$190.00</tspan></text>
    <text id="_220.00" data-name="$220.00" transform="translate(810 3834)" fill="#fff" font-size="16" font-family="Roboto-Regular, Roboto" text-decoration="line-through"><tspan x="0" y="0">$220.00</tspan></text>
    <rect id="Rectangle_823" data-name="Rectangle 823" width="46" height="203" rx="23" transform="translate(1074 3514)" fill="#fff"/>
    <g id="Search_icon" data-name="Search icon" transform="translate(1071.848 3335.543)">
      <g id="Ellipse_10" data-name="Ellipse 10" transform="translate(15.152 304.457)" fill="none" stroke="#aaa" stroke-linecap="round" stroke-linejoin="round" stroke-width="1.5">
        <circle cx="8.493" cy="8.493" r="8.493" stroke="none"/>
        <circle cx="8.493" cy="8.493" r="7.743" fill="none"/>
      </g>
      <line id="Line_12" data-name="Line 12" x1="5.502" y1="5.502" transform="translate(29.65 318.955)" fill="none" stroke="#aaa" stroke-linecap="round" stroke-linejoin="round" stroke-width="1.5"/>
    </g>
    <path id="Heart_icon" data-name="Heart icon" d="M295.565,309.457a5,5,0,0,1,10,0v2.753c0,4.509-10,12.247-10,12.247s-10-7.738-10-12.247v-2.753a5,5,0,0,1,10,0" transform="translate(801.435 3267.543)" fill="none" stroke="#aaa" stroke-linecap="round" stroke-linejoin="round" stroke-width="1.5"/>
    <g id="Compare_icon" data-name="Compare icon" transform="translate(840.065 3300.988)">
      <g id="Group_23" data-name="Group 23" transform="translate(246.935 306.012)">
        <path id="Path_48" data-name="Path 48" d="M266.935,309.9h-4.022a2.452,2.452,0,0,0-2.027,1.071l-6.363,9.335a2.451,2.451,0,0,1-2.027,1.071h-5.561" transform="translate(-246.935 -307.31)" fill="none" stroke="#aaa" stroke-linecap="round" stroke-linejoin="round" stroke-width="1.5"/>
        <path id="Path_49" data-name="Path 49" d="M273.043,306.012l2.594,2.594-2.594,2.594" transform="translate(-255.638 -306.012)" fill="none" stroke="#aaa" stroke-linecap="round" stroke-linejoin="round" stroke-width="1.5"/>
      </g>
      <g id="Group_24" data-name="Group 24" transform="translate(246.935 309.867)">
        <path id="Path_50" data-name="Path 50" d="M266.935,323.274h-4.022a2.454,2.454,0,0,1-2.027-1.071l-6.363-9.336A2.453,2.453,0,0,0,252.5,311.8h-5.561" transform="translate(-246.935 -311.795)" fill="none" stroke="#aaa" stroke-linecap="round" stroke-linejoin="round" stroke-width="1.5"/>
        <path id="Path_51" data-name="Path 51" d="M273.043,325.121l2.594,2.594-2.594,2.594" transform="translate(-255.638 -316.237)" fill="none" stroke="#aaa" stroke-linecap="round" stroke-linejoin="round" stroke-width="1.5"/>
      </g>
    </g>
    <g id="Cart_icon" data-name="Cart icon" transform="translate(994.587 3261.267)">
      <path id="Path_52" data-name="Path 52" d="M92.413,413.733h2.61l5.083,11.643h9.941l2.366-7.651H100.106" fill="none" stroke="#20d3c2" stroke-linecap="round" stroke-linejoin="round" stroke-width="1.5"/>
      <g id="Group_26" data-name="Group 26" transform="translate(97.856 427.641)">
        <circle id="Ellipse_11" data-name="Ellipse 11" cx="1.726" cy="1.726" r="1.726" transform="translate(10.969)" fill="none" stroke="#20d3c2" stroke-linecap="round" stroke-linejoin="round" stroke-width="1.5"/>
        <circle id="Ellipse_12" data-name="Ellipse 12" cx="1.726" cy="1.726" r="1.726" fill="none" stroke="#20d3c2" stroke-linecap="round" stroke-linejoin="round" stroke-width="1.5"/>
      </g>
    </g>
    <circle id="Color" cx="10" cy="10" r="10" transform="translate(1087 3537)" fill="#fe6c6c"/>
    <g id="Tags_Button_-_White" data-name="Tags Button - White" transform="translate(810 3783)">
      <g id="Rectangle_308" data-name="Rectangle 308" fill="none" stroke="#fff" stroke-width="1">
        <rect width="70" height="23" stroke="none"/>
        <rect x="0.5" y="0.5" width="69" height="22" fill="none"/>
      </g>
      <text id="Fashion" transform="translate(35 17)" fill="#fff" font-size="14" font-family="Roboto-Regular, Roboto"><tspan x="-24.579" y="0">Fashion</tspan></text>
    </g>
    <g id="Tooltip_-_Right_Color" data-name="Tooltip - Right Color" transform="translate(979 3533)">
      <g id="Group_31" data-name="Group 31" transform="translate(-971 -2547)">
        <rect id="Rectangle_312" data-name="Rectangle 312" width="89.478" height="29" rx="4" transform="translate(971 2547)" fill="#fff"/>
        <rect id="Rectangle_313" data-name="Rectangle 313" width="7.935" height="7.935" transform="translate(1060.428 2555.758) rotate(45)" fill="#fff"/>
      </g>
      <g id="Group_514" data-name="Group 514" transform="translate(-971 -3579)">
        <circle id="Ellipse_18" data-name="Ellipse 18" cx="6.5" cy="6.5" r="6.5" transform="translate(981 3587)" fill="#82d8c6"/>
        <circle id="Ellipse_19" data-name="Ellipse 19" cx="6.5" cy="6.5" r="6.5" transform="translate(1000 3587)" fill="#ca82d8"/>
        <circle id="Ellipse_20" data-name="Ellipse 20" cx="6.5" cy="6.5" r="6.5" transform="translate(1019 3587)" fill="#fe6c6c"/>
        <circle id="Ellipse_21" data-name="Ellipse 21" cx="6.5" cy="6.5" r="6.5" transform="translate(1038 3587)" fill="#333"/>
      </g>
    </g>
    <g id="_5_star" data-name="5 star" transform="translate(863.765 3199.741)">
      <g id="Group_37" data-name="Group 37">
        <g id="Group_36" data-name="Group 36">
          <path id="Path_56" data-name="Path 56" d="M154.121,661.76a1.441,1.441,0,0,0-1.164-.981l-5.5-.8L145,655a1.5,1.5,0,0,0-2.582,0l-2.46,4.98-5.487.8a1.44,1.44,0,0,0-.8,2.457l3.977,3.867-.937,5.473a1.44,1.44,0,0,0,2.091,1.518l4.9-2.586,4.917,2.586a1.449,1.449,0,0,0,.67.165,1.465,1.465,0,0,0,.85-.273,1.446,1.446,0,0,0,.573-1.41l-.938-5.473,3.978-3.867A1.437,1.437,0,0,0,154.121,661.76Z" fill="#20d3c2"/>
        </g>
      </g>
      <g id="Group_39" data-name="Group 39">
        <g id="Group_38" data-name="Group 38">
          <path id="Path_57" data-name="Path 57" d="M177.164,661.76a1.441,1.441,0,0,0-1.164-.981l-5.5-.8L168.04,655a1.5,1.5,0,0,0-2.582,0l-2.46,4.98-5.487.8a1.44,1.44,0,0,0-.8,2.457l3.978,3.867-.937,5.473a1.44,1.44,0,0,0,2.091,1.518l4.9-2.586,4.917,2.586a1.446,1.446,0,0,0,.67.165,1.465,1.465,0,0,0,.85-.273,1.446,1.446,0,0,0,.573-1.41l-.938-5.473,3.978-3.867A1.437,1.437,0,0,0,177.164,661.76Z" fill="#20d3c2"/>
        </g>
      </g>
      <g id="Group_41" data-name="Group 41">
        <g id="Group_40" data-name="Group 40">
          <path id="Path_58" data-name="Path 58" d="M200.207,661.76a1.441,1.441,0,0,0-1.164-.981l-5.5-.8-2.46-4.98a1.5,1.5,0,0,0-2.582,0l-2.46,4.98-5.487.8a1.44,1.44,0,0,0-.8,2.457l3.978,3.867-.937,5.473a1.44,1.44,0,0,0,2.091,1.518l4.9-2.586,4.917,2.586a1.449,1.449,0,0,0,.67.165,1.465,1.465,0,0,0,.85-.273,1.446,1.446,0,0,0,.573-1.41l-.938-5.473,3.978-3.867A1.437,1.437,0,0,0,200.207,661.76Z" fill="#20d3c2"/>
        </g>
      </g>
      <g id="Group_43" data-name="Group 43">
        <g id="Group_42" data-name="Group 42">
          <path id="Path_59" data-name="Path 59" d="M223.25,661.758a1.442,1.442,0,0,0-1.164-.981l-5.5-.8-2.46-4.98a1.5,1.5,0,0,0-2.582,0l-2.46,4.98-5.487.8a1.44,1.44,0,0,0-.8,2.457l3.977,3.866-.937,5.473a1.44,1.44,0,0,0,2.091,1.518l4.9-2.585,4.916,2.585a1.438,1.438,0,0,0,.67.166,1.459,1.459,0,0,0,.85-.274,1.444,1.444,0,0,0,.573-1.41l-.937-5.472,3.977-3.867A1.438,1.438,0,0,0,223.25,661.758Z" fill="#20d3c2"/>
        </g>
      </g>
      <g id="Group_45" data-name="Group 45">
        <g id="Group_44" data-name="Group 44">
          <path id="Path_60" data-name="Path 60" d="M246.293,661.76a1.441,1.441,0,0,0-1.164-.981l-5.5-.8-2.46-4.98a1.5,1.5,0,0,0-2.582,0l-2.46,4.98-5.487.8a1.44,1.44,0,0,0-.8,2.457l3.978,3.867-.938,5.473a1.44,1.44,0,0,0,2.091,1.518l4.9-2.586,4.917,2.586a1.442,1.442,0,0,0,.669.165,1.465,1.465,0,0,0,.85-.273,1.445,1.445,0,0,0,.573-1.41l-.937-5.473,3.978-3.867A1.439,1.439,0,0,0,246.293,661.76Zm-6.9,3.806a1.442,1.442,0,0,0-.416,1.276l.573,3.344-3-1.58a1.443,1.443,0,0,0-1.34,0l-2.99,1.576.574-3.34a1.442,1.442,0,0,0-.417-1.276l-2.425-2.357,3.343-.487a1.44,1.44,0,0,0,1.083-.788l1.5-3.043,1.5,3.043a1.438,1.438,0,0,0,1.084.788l3.356.488Z" fill="#20d3c2"/>
        </g>
      </g>
    </g>
  </g>
</svg>
